<?xml version="1.0" encoding="utf-8"?>
<svg width="883" height="516" viewBox="0 0 883 516" xmlns="http://www.w3.org/2000/svg">
<rect id="frame" x="0" y="0" width="883" height="516" fill="#f7f7f7" stroke="none" stroke-width="0"/>

<!-- Association Appartient à -->
<g class="page_0_rrGLS8An diagram_page" visibility="visible">
	<line x1="465" y1="195" x2="465" y2="77" stroke="#4393c3" stroke-width="2"/>
	<text x="470" y="153" fill="#b2182b" font-family="Verdana" font-size="12">1,1</text>
	<line x1="328" y1="77" x2="465" y2="77" stroke="#4393c3" stroke-width="2"/>
	<text x="378" y="94" fill="#b2182b" font-family="Verdana" font-size="12">1,N</text>
	<g>
		<path d="M496 52 a14 14 90 0 1 14 14 V77 h-90 V66 a14 14 90 0 1 14 -14" fill="#92c5de" stroke="#92c5de" stroke-width="0"/>
		<path d="M510 77 v11 a14 14 90 0 1 -14 14 H434 a14 14 90 0 1 -14 -14 V77 H90" fill="#d1e5f0" stroke="#d1e5f0" stroke-width="0"/>
		<rect x="420" y="52" width="90" height="50" fill="none" rx="14" stroke="#4393c3" stroke-width="2"/>
		<line x1="420" y1="77" x2="510" y2="77" stroke="#4393c3" stroke-width="1"/>
		<text x="428" y="69.75" fill="#000" font-family="Verdana" font-size="12">Appartient à</text>
	</g>
</g>

<!-- Association Supprimer -->
<g class="page_0_rrGLS8An diagram_page" visibility="visible">
	<line x1="204" y1="195" x2="328" y2="195" stroke="#4393c3" stroke-width="2"/>
	<text x="249" y="212" fill="#b2182b" font-family="Verdana" font-size="12">1,1</text>
	<line x1="465" y1="195" x2="328" y2="195" stroke="#4393c3" stroke-width="2"/>
	<text x="394" y="187" fill="#b2182b" font-family="Verdana" font-size="12">0,N</text>
	<g>
		<path d="M353 170 a14 14 90 0 1 14 14 V195 h-78 V184 a14 14 90 0 1 14 -14" fill="#92c5de" stroke="#92c5de" stroke-width="0"/>
		<path d="M367 195 v11 a14 14 90 0 1 -14 14 H303 a14 14 90 0 1 -14 -14 V195 H78" fill="#d1e5f0" stroke="#d1e5f0" stroke-width="0"/>
		<rect x="289" y="170" width="78" height="50" fill="none" rx="14" stroke="#4393c3" stroke-width="2"/>
		<line x1="289" y1="195" x2="367" y2="195" stroke="#4393c3" stroke-width="1"/>
		<text x="296" y="187.75" fill="#000" font-family="Verdana" font-size="12">Supprimer</text>
	</g>
</g>

<!-- Association Ajouter -->
<g class="page_0_rrGLS8An diagram_page" visibility="visible">
	<line x1="584" y1="77" x2="584" y2="195" stroke="#4393c3" stroke-width="2"/>
	<text x="589" y="136" fill="#b2182b" font-family="Verdana" font-size="12">1,1</text>
	<line x1="465" y1="195" x2="584" y2="195" stroke="#4393c3" stroke-width="2"/>
	<text x="515" y="187" fill="#b2182b" font-family="Verdana" font-size="12">0,N</text>
	<g>
		<path d="M600 170 a14 14 90 0 1 14 14 V195 h-60 V184 a14 14 90 0 1 14 -14" fill="#92c5de" stroke="#92c5de" stroke-width="0"/>
		<path d="M614 195 v11 a14 14 90 0 1 -14 14 H568 a14 14 90 0 1 -14 -14 V195 H60" fill="#d1e5f0" stroke="#d1e5f0" stroke-width="0"/>
		<rect x="554" y="170" width="60" height="50" fill="none" rx="14" stroke="#4393c3" stroke-width="2"/>
		<line x1="554" y1="195" x2="614" y2="195" stroke="#4393c3" stroke-width="1"/>
		<text x="562" y="187.75" fill="#000" font-family="Verdana" font-size="12">Ajouter</text>
	</g>
</g>

<!-- Association concernerV -->
<g class="page_0_rrGLS8An diagram_page" visibility="visible">
	<line x1="707" y1="304" x2="707" y2="195" stroke="#4393c3" stroke-width="2"/>
	<text x="712" y="262" fill="#b2182b" font-family="Verdana" font-size="12">1,1</text>
	<line x1="707" y1="77" x2="707" y2="195" stroke="#4393c3" stroke-width="2"/>
	<text x="712" y="162" fill="#b2182b" font-family="Verdana" font-size="12">1,N</text>
	<g>
		<path d="M735 170 a14 14 90 0 1 14 14 V195 h-84 V184 a14 14 90 0 1 14 -14" fill="#92c5de" stroke="#92c5de" stroke-width="0"/>
		<path d="M749 195 v11 a14 14 90 0 1 -14 14 H679 a14 14 90 0 1 -14 -14 V195 H84" fill="#d1e5f0" stroke="#d1e5f0" stroke-width="0"/>
		<rect x="665" y="170" width="84" height="50" fill="none" rx="14" stroke="#4393c3" stroke-width="2"/>
		<line x1="665" y1="195" x2="749" y2="195" stroke="#4393c3" stroke-width="1"/>
		<text x="673" y="187.75" fill="#000" font-family="Verdana" font-size="12">concernerV</text>
	</g>
</g>

<!-- Association reglerFacture -->
<g class="page_0_rrGLS8An diagram_page" visibility="visible">
	<line x1="204" y1="304" x2="70" y2="304" stroke="#4393c3" stroke-width="2"/>
	<text x="123" y="321" fill="#b2182b" font-family="Verdana" font-size="12">0,N</text>
	<line x1="70" y1="439" x2="70" y2="304" stroke="#4393c3" stroke-width="2"/>
	<text x="75" y="389" fill="#b2182b" font-family="Verdana" font-size="12">1,1</text>
	<g>
		<path d="M104 279 a14 14 90 0 1 14 14 V304 h-96 V293 a14 14 90 0 1 14 -14" fill="#92c5de" stroke="#92c5de" stroke-width="0"/>
		<path d="M118 304 v11 a14 14 90 0 1 -14 14 H36 a14 14 90 0 1 -14 -14 V304 H96" fill="#d1e5f0" stroke="#d1e5f0" stroke-width="0"/>
		<rect x="22" y="279" width="96" height="50" fill="none" rx="14" stroke="#4393c3" stroke-width="2"/>
		<line x1="22" y1="304" x2="118" y2="304" stroke="#4393c3" stroke-width="1"/>
		<text x="30" y="296.75" fill="#000" font-family="Verdana" font-size="12">reglerFacture</text>
	</g>
</g>

<!-- Association Avoir -->
<g class="page_0_rrGLS8An diagram_page" visibility="visible">
	<line x1="204" y1="304" x2="328" y2="304" stroke="#4393c3" stroke-width="2"/>
	<text x="263" y="321" fill="#b2182b" font-family="Verdana" font-size="12">1,N</text>
	<line x1="465" y1="195" x2="328" y2="304" stroke="#4393c3" stroke-width="2"/>
	<text x="421.33" y="246" fill="#b2182b" font-family="Verdana" font-size="12">0,N</text>
	<line x1="465" y1="439" x2="328" y2="304" stroke="#4393c3" stroke-width="2"/>
	<text x="437.63" y="406" fill="#b2182b" font-family="Verdana" font-size="12">1,1</text>
	<g>
		<path d="M352 279 a14 14 90 0 1 14 14 V304 h-76 V293 a14 14 90 0 1 14 -14" fill="#92c5de" stroke="#92c5de" stroke-width="0"/>
		<path d="M366 304 v11 a14 14 90 0 1 -14 14 H304 a14 14 90 0 1 -14 -14 V304 H76" fill="#d1e5f0" stroke="#d1e5f0" stroke-width="0"/>
		<rect x="290" y="279" width="76" height="50" fill="none" rx="14" stroke="#4393c3" stroke-width="2"/>
		<line x1="290" y1="304" x2="366" y2="304" stroke="#4393c3" stroke-width="1"/>
		<text x="312" y="296.75" fill="#000" font-family="Verdana" font-size="12">Avoir</text>
		<text x="297" y="321.8" fill="#000" font-family="Verdana" font-size="12">qtachetée</text>
	</g>
</g>

<!-- Association stock -->
<g class="page_0_rrGLS8An diagram_page" visibility="visible">
	<line x1="465" y1="195" x2="465" y2="304" stroke="#4393c3" stroke-width="2"/>
	<text x="470" y="246" fill="#b2182b" font-family="Verdana" font-size="12">1,N</text>
	<line x1="465" y1="439" x2="465" y2="304" stroke="#4393c3" stroke-width="2"/>
	<text x="470" y="406" fill="#b2182b" font-family="Verdana" font-size="12">1,N</text>
	<g>
		<path d="M475 270 a14 14 90 0 1 14 14 V295 h-48 V284 a14 14 90 0 1 14 -14" fill="#92c5de" stroke="#92c5de" stroke-width="0"/>
		<path d="M489 295 v29 a14 14 90 0 1 -14 14 H455 a14 14 90 0 1 -14 -14 V295 H48" fill="#d1e5f0" stroke="#d1e5f0" stroke-width="0"/>
		<rect x="441" y="270" width="48" height="68" fill="none" rx="14" stroke="#4393c3" stroke-width="2"/>
		<line x1="441" y1="295" x2="489" y2="295" stroke="#4393c3" stroke-width="1"/>
		<text x="449" y="287.75" fill="#000" font-family="Verdana" font-size="12">stock</text>
		<text x="448" y="312.8" fill="#000" font-family="Verdana" font-size="12">qtp</text>
		<text x="448" y="329.8" fill="#000" font-family="Verdana" font-size="12">Date</text>
	</g>
</g>

<!-- Association Composer -->
<g class="page_0_rrGLS8An diagram_page" visibility="visible">
	<line x1="465" y1="195" x2="584" y2="304" stroke="#4393c3" stroke-width="2"/>
	<text x="512" y="230" fill="#b2182b" font-family="Verdana" font-size="12">0,N</text>
	<line x1="707" y1="304" x2="584" y2="304" stroke="#4393c3" stroke-width="2"/>
	<text x="655" y="321" fill="#b2182b" font-family="Verdana" font-size="12">1,N</text>
	<line x1="465" y1="439" x2="584" y2="304" stroke="#4393c3" stroke-width="2"/>
	<text x="505" y="406" fill="#b2182b" font-family="Verdana" font-size="12">1,1</text>
	<g>
		<path d="M611 279 a14 14 90 0 1 14 14 V304 h-82 V293 a14 14 90 0 1 14 -14" fill="#92c5de" stroke="#92c5de" stroke-width="0"/>
		<path d="M625 304 v11 a14 14 90 0 1 -14 14 H557 a14 14 90 0 1 -14 -14 V304 H82" fill="#d1e5f0" stroke="#d1e5f0" stroke-width="0"/>
		<rect x="543" y="279" width="82" height="50" fill="none" rx="14" stroke="#4393c3" stroke-width="2"/>
		<line x1="543" y1="304" x2="625" y2="304" stroke="#4393c3" stroke-width="1"/>
		<text x="553" y="296.75" fill="#000" font-family="Verdana" font-size="12">Composer</text>
		<text x="550" y="321.8" fill="#000" font-family="Verdana" font-size="12">QteVendue</text>
	</g>
</g>

<!-- Association ReglerVente -->
<g class="page_0_rrGLS8An diagram_page" visibility="visible">
	<line x1="707" y1="304" x2="808" y2="304" stroke="#4393c3" stroke-width="2"/>
	<text x="737" y="321" fill="#b2182b" font-family="Verdana" font-size="12">0,N</text>
	<line x1="808" y1="439" x2="808" y2="304" stroke="#4393c3" stroke-width="2"/>
	<text x="813" y="389" fill="#b2182b" font-family="Verdana" font-size="12">1,1</text>
	<g>
		<path d="M838 279 a14 14 90 0 1 14 14 V304 h-88 V293 a14 14 90 0 1 14 -14" fill="#92c5de" stroke="#92c5de" stroke-width="0"/>
		<path d="M852 304 v11 a14 14 90 0 1 -14 14 H778 a14 14 90 0 1 -14 -14 V304 H88" fill="#d1e5f0" stroke="#d1e5f0" stroke-width="0"/>
		<rect x="764" y="279" width="88" height="50" fill="none" rx="14" stroke="#4393c3" stroke-width="2"/>
		<line x1="764" y1="304" x2="852" y2="304" stroke="#4393c3" stroke-width="1"/>
		<text x="771" y="296.75" fill="#000" font-family="Verdana" font-size="12">ReglerVente</text>
	</g>
</g>

<!-- Association Concerner -->
<g class="page_0_rrGLS8An diagram_page" visibility="visible">
	<line x1="204" y1="304" x2="204" y2="439" stroke="#4393c3" stroke-width="2"/>
	<text x="209" y="363" fill="#b2182b" font-family="Verdana" font-size="12">1,1</text>
	<line x1="328" y1="439" x2="204" y2="439" stroke="#4393c3" stroke-width="2"/>
	<text x="260" y="456" fill="#b2182b" font-family="Verdana" font-size="12">0,N</text>
	<g>
		<path d="M229 414 a14 14 90 0 1 14 14 V439 h-78 V428 a14 14 90 0 1 14 -14" fill="#92c5de" stroke="#92c5de" stroke-width="0"/>
		<path d="M243 439 v11 a14 14 90 0 1 -14 14 H179 a14 14 90 0 1 -14 -14 V439 H78" fill="#d1e5f0" stroke="#d1e5f0" stroke-width="0"/>
		<rect x="165" y="414" width="78" height="50" fill="none" rx="14" stroke="#4393c3" stroke-width="2"/>
		<line x1="165" y1="439" x2="243" y2="439" stroke="#4393c3" stroke-width="1"/>
		<text x="173" y="431.75" fill="#000" font-family="Verdana" font-size="12">Concerner</text>
	</g>
</g>

<!-- Entity TypeProduit -->
<g class="page_0_rrGLS8An diagram_page" visibility="visible">
	<g>
		<rect x="283" y="43" width="90" height="25" fill="#f4a582" stroke="#f4a582" stroke-width="0" opacity="1"/>
		<rect x="283" y="68" width="90" height="43" fill="#fddbc7" stroke="#fddbc7" stroke-width="0" opacity="1"/>
		<rect x="283" y="43" width="90" height="68" fill="none" stroke="#d6604d" stroke-width="2" opacity="1"/>
		<line x1="283" y1="68" x2="373" y2="68" stroke="#d6604d" stroke-width="1"/>
	</g>
	<text x="292" y="60.75" fill="#000" font-family="Verdana" font-size="12">TypeProduit</text>
	<text x="288" y="85.8" fill="#000" font-family="Verdana" font-size="12">CodeT</text>
	<line x1="288" y1="88" x2="327" y2="88" stroke="#000" stroke-width="1"/>
	<text x="288" y="102.8" fill="#000" font-family="Verdana" font-size="12">DésignationT</text>
</g>

<!-- Entity EntreeStock -->
<g class="page_0_rrGLS8An diagram_page" visibility="visible">
	<g>
		<rect x="542" y="35" width="84" height="25" fill="#f4a582" stroke="#f4a582" stroke-width="0" opacity="1"/>
		<rect x="542" y="60" width="84" height="59" fill="#fddbc7" stroke="#fddbc7" stroke-width="0" opacity="1"/>
		<rect x="542" y="35" width="84" height="84" fill="none" stroke="#d6604d" stroke-width="2" opacity="1"/>
		<line x1="542" y1="60" x2="626" y2="60" stroke="#d6604d" stroke-width="1"/>
	</g>
	<text x="547" y="52.75" fill="#000" font-family="Verdana" font-size="12">EntreeStock</text>
	<text x="547" y="77.8" fill="#000" font-family="Verdana" font-size="12">codeEntry</text>
	<line x1="547" y1="80" x2="608" y2="80" stroke="#000" stroke-width="1"/>
	<text x="547" y="94.8" fill="#000" font-family="Verdana" font-size="12">DateEntry</text>
	<text x="547" y="111.8" fill="#000" font-family="Verdana" font-size="12">qtEntrée</text>
</g>

<!-- Entity Client -->
<g class="page_0_rrGLS8An diagram_page" visibility="visible">
	<g>
		<rect x="658" y="9" width="98" height="25" fill="#f4a582" stroke="#f4a582" stroke-width="0" opacity="1"/>
		<rect x="658" y="34" width="98" height="111" fill="#fddbc7" stroke="#fddbc7" stroke-width="0" opacity="1"/>
		<rect x="658" y="9" width="98" height="136" fill="none" stroke="#d6604d" stroke-width="2" opacity="1"/>
		<line x1="658" y1="34" x2="756" y2="34" stroke="#d6604d" stroke-width="1"/>
	</g>
	<text x="690" y="26.75" fill="#000" font-family="Verdana" font-size="12">Client</text>
	<text x="663" y="51.8" fill="#000" font-family="Verdana" font-size="12">Code&#45;Client</text>
	<line x1="663" y1="54" x2="734" y2="54" stroke="#000" stroke-width="1"/>
	<text x="663" y="68.8" fill="#000" font-family="Verdana" font-size="12">Nom&#45;Client</text>
	<text x="663" y="85.8" fill="#000" font-family="Verdana" font-size="12">Prénom&#45;Client</text>
	<text x="663" y="102.8" fill="#000" font-family="Verdana" font-size="12">Adr&#45;Client</text>
	<text x="663" y="119.8" fill="#000" font-family="Verdana" font-size="12">Tel&#45;Client</text>
	<text x="663" y="136.8" fill="#000" font-family="Verdana" font-size="12">crédit</text>
</g>

<!-- Entity SortieStock -->
<g class="page_0_rrGLS8An diagram_page" visibility="visible">
	<g>
		<rect x="164" y="153" width="80" height="25" fill="#f4a582" stroke="#f4a582" stroke-width="0" opacity="1"/>
		<rect x="164" y="178" width="80" height="59" fill="#fddbc7" stroke="#fddbc7" stroke-width="0" opacity="1"/>
		<rect x="164" y="153" width="80" height="84" fill="none" stroke="#d6604d" stroke-width="2" opacity="1"/>
		<line x1="164" y1="178" x2="244" y2="178" stroke="#d6604d" stroke-width="1"/>
	</g>
	<text x="169" y="170.75" fill="#000" font-family="Verdana" font-size="12">SortieStock</text>
	<text x="169" y="195.8" fill="#000" font-family="Verdana" font-size="12">codeSortie</text>
	<line x1="169" y1="198" x2="234" y2="198" stroke="#000" stroke-width="1"/>
	<text x="169" y="212.8" fill="#000" font-family="Verdana" font-size="12">DateSortie</text>
	<text x="169" y="229.8" fill="#000" font-family="Verdana" font-size="12">motif</text>
</g>

<!-- Entity Produit -->
<g class="page_0_rrGLS8An diagram_page" visibility="visible">
	<g>
		<rect x="420" y="161" width="90" height="25" fill="#f4a582" stroke="#f4a582" stroke-width="0" opacity="1"/>
		<rect x="420" y="186" width="90" height="43" fill="#fddbc7" stroke="#fddbc7" stroke-width="0" opacity="1"/>
		<rect x="420" y="161" width="90" height="68" fill="none" stroke="#d6604d" stroke-width="2" opacity="1"/>
		<line x1="420" y1="186" x2="510" y2="186" stroke="#d6604d" stroke-width="1"/>
	</g>
	<text x="443" y="178.75" fill="#000" font-family="Verdana" font-size="12">Produit</text>
	<text x="425" y="203.8" fill="#000" font-family="Verdana" font-size="12">CodeP</text>
	<line x1="425" y1="206" x2="464" y2="206" stroke="#000" stroke-width="1"/>
	<text x="425" y="220.8" fill="#000" font-family="Verdana" font-size="12">DésignationP</text>
</g>

<!-- Entity Facture -->
<g class="page_0_rrGLS8An diagram_page" visibility="visible">
	<g>
		<rect x="150" y="262" width="108" height="25" fill="#f4a582" stroke="#f4a582" stroke-width="0" opacity="1"/>
		<rect x="150" y="287" width="108" height="59" fill="#fddbc7" stroke="#fddbc7" stroke-width="0" opacity="1"/>
		<rect x="150" y="262" width="108" height="84" fill="none" stroke="#d6604d" stroke-width="2" opacity="1"/>
		<line x1="150" y1="287" x2="258" y2="287" stroke="#d6604d" stroke-width="1"/>
	</g>
	<text x="181" y="279.75" fill="#000" font-family="Verdana" font-size="12">Facture</text>
	<text x="155" y="304.8" fill="#000" font-family="Verdana" font-size="12">Codefacture</text>
	<line x1="155" y1="307" x2="229" y2="307" stroke="#000" stroke-width="1"/>
	<text x="155" y="321.8" fill="#000" font-family="Verdana" font-size="12">DateCommande</text>
	<text x="155" y="338.8" fill="#000" font-family="Verdana" font-size="12">SommePayée</text>
</g>

<!-- Entity Vente -->
<g class="page_0_rrGLS8An diagram_page" visibility="visible">
	<g>
		<rect x="682" y="270" width="50" height="25" fill="#f4a582" stroke="#f4a582" stroke-width="0" opacity="1"/>
		<rect x="682" y="295" width="50" height="43" fill="#fddbc7" stroke="#fddbc7" stroke-width="0" opacity="1"/>
		<rect x="682" y="270" width="50" height="68" fill="none" stroke="#d6604d" stroke-width="2" opacity="1"/>
		<line x1="682" y1="295" x2="732" y2="295" stroke="#d6604d" stroke-width="1"/>
	</g>
	<text x="689" y="287.75" fill="#000" font-family="Verdana" font-size="12">Vente</text>
	<text x="687" y="312.8" fill="#000" font-family="Verdana" font-size="12">CodeV</text>
	<line x1="687" y1="315" x2="727" y2="315" stroke="#000" stroke-width="1"/>
	<text x="687" y="329.8" fill="#000" font-family="Verdana" font-size="12">DateV</text>
</g>

<!-- Entity ReglementFacture -->
<g class="page_0_rrGLS8An diagram_page" visibility="visible">
	<g>
		<rect x="9" y="397" width="122" height="25" fill="#f4a582" stroke="#f4a582" stroke-width="0" opacity="1"/>
		<rect x="9" y="422" width="122" height="59" fill="#fddbc7" stroke="#fddbc7" stroke-width="0" opacity="1"/>
		<rect x="9" y="397" width="122" height="84" fill="none" stroke="#d6604d" stroke-width="2" opacity="1"/>
		<line x1="9" y1="422" x2="131" y2="422" stroke="#d6604d" stroke-width="1"/>
	</g>
	<text x="15" y="414.75" fill="#000" font-family="Verdana" font-size="12">ReglementFacture</text>
	<text x="14" y="439.8" fill="#000" font-family="Verdana" font-size="12">CodeReg</text>
	<line x1="14" y1="442" x2="68" y2="442" stroke="#000" stroke-width="1"/>
	<text x="14" y="456.8" fill="#000" font-family="Verdana" font-size="12">DateReglF</text>
	<text x="14" y="473.8" fill="#000" font-family="Verdana" font-size="12">SommeAjouteF</text>
</g>

<!-- Entity Fournisseur -->
<g class="page_0_rrGLS8An diagram_page" visibility="visible">
	<g>
		<rect x="287" y="371" width="82" height="25" fill="#f4a582" stroke="#f4a582" stroke-width="0" opacity="1"/>
		<rect x="287" y="396" width="82" height="111" fill="#fddbc7" stroke="#fddbc7" stroke-width="0" opacity="1"/>
		<rect x="287" y="371" width="82" height="136" fill="none" stroke="#d6604d" stroke-width="2" opacity="1"/>
		<line x1="287" y1="396" x2="369" y2="396" stroke="#d6604d" stroke-width="1"/>
	</g>
	<text x="293" y="388.75" fill="#000" font-family="Verdana" font-size="12">Fournisseur</text>
	<text x="292" y="413.8" fill="#000" font-family="Verdana" font-size="12">CodeF</text>
	<line x1="292" y1="416" x2="330" y2="416" stroke="#000" stroke-width="1"/>
	<text x="292" y="430.8" fill="#000" font-family="Verdana" font-size="12">NomF</text>
	<text x="292" y="447.8" fill="#000" font-family="Verdana" font-size="12">PrénomF</text>
	<text x="292" y="464.8" fill="#000" font-family="Verdana" font-size="12">AdrF</text>
	<text x="292" y="481.8" fill="#000" font-family="Verdana" font-size="12">TelF</text>
	<text x="292" y="498.8" fill="#000" font-family="Verdana" font-size="12">solde</text>
</g>

<!-- Entity Prix -->
<g class="page_0_rrGLS8An diagram_page" visibility="visible">
	<g>
		<rect x="401" y="414" width="128" height="25" fill="#f4a582" stroke="#f4a582" stroke-width="0" opacity="1"/>
		<rect x="401" y="439" width="128" height="25" fill="#fddbc7" stroke="#fddbc7" stroke-width="0" opacity="1"/>
		<rect x="401" y="414" width="128" height="50" fill="none" stroke="#d6604d" stroke-width="2" opacity="1"/>
		<line x1="401" y1="439" x2="529" y2="439" stroke="#d6604d" stroke-width="1"/>
	</g>
	<text x="453" y="431.75" fill="#000" font-family="Verdana" font-size="12">Prix</text>
	<text x="406" y="456.8" fill="#000" font-family="Verdana" font-size="12">PrixUnite PrixVente</text>
	<line x1="406" y1="459" x2="523" y2="459" stroke="#000" stroke-width="1"/>
</g>

<!-- Entity ReglementVente -->
<g class="page_0_rrGLS8An diagram_page" visibility="visible">
	<g>
		<rect x="742" y="397" width="132" height="25" fill="#f4a582" stroke="#f4a582" stroke-width="0" opacity="1"/>
		<rect x="742" y="422" width="132" height="59" fill="#fddbc7" stroke="#fddbc7" stroke-width="0" opacity="1"/>
		<rect x="742" y="397" width="132" height="84" fill="none" stroke="#d6604d" stroke-width="2" opacity="1"/>
		<line x1="742" y1="422" x2="874" y2="422" stroke="#d6604d" stroke-width="1"/>
	</g>
	<text x="758" y="414.75" fill="#000" font-family="Verdana" font-size="12">ReglementVente</text>
	<text x="747" y="439.8" fill="#000" font-family="Verdana" font-size="12">CodeRegV</text>
	<line x1="747" y1="442" x2="810" y2="442" stroke="#000" stroke-width="1"/>
	<text x="747" y="456.8" fill="#000" font-family="Verdana" font-size="12">DateReglVente</text>
	<text x="747" y="473.8" fill="#000" font-family="Verdana" font-size="12">SommeAjouteVente</text>
</g>
</svg>