<?xml version="1.0" encoding="utf-8"?>
<svg width="942" height="726" viewBox="0 0 942 726" xmlns="http://www.w3.org/2000/svg">
<rect id="frame" x="0" y="0" width="942" height="726" fill="#f7f7f7" stroke="none" stroke-width="0"/>

<!-- Association Concerner -->
<g class="page_0_mr54B2QT diagram_page" visibility="visible">
	<line x1="345" y1="195" x2="345" y2="77" stroke="#4393c3" stroke-width="2"/>
	<text x="350" y="145" fill="#b2182b" font-family="Verdana" font-size="12">1,1</text>
	<line x1="211" y1="77" x2="345" y2="77" stroke="#4393c3" stroke-width="2"/>
	<text x="257" y="94" fill="#b2182b" font-family="Verdana" font-size="12">0,N</text>
	<g>
		<path d="M370 52 a14 14 90 0 1 14 14 V77 h-78 V66 a14 14 90 0 1 14 -14" fill="#92c5de" stroke="#92c5de" stroke-width="0"/>
		<path d="M384 77 v11 a14 14 90 0 1 -14 14 H320 a14 14 90 0 1 -14 -14 V77 H78" fill="#d1e5f0" stroke="#d1e5f0" stroke-width="0"/>
		<rect x="306" y="52" width="78" height="50" fill="none" rx="14" stroke="#4393c3" stroke-width="2"/>
		<line x1="306" y1="77" x2="384" y2="77" stroke="#4393c3" stroke-width="1"/>
		<text x="314" y="69.75" fill="#000" font-family="Verdana" font-size="12">Concerner</text>
	</g>
</g>

<!-- Association reglerFacture -->
<g class="page_0_mr54B2QT diagram_page" visibility="visible">
	<line x1="345" y1="195" x2="211" y2="195" stroke="#4393c3" stroke-width="2"/>
	<text x="264" y="212" fill="#b2182b" font-family="Verdana" font-size="12">0,N</text>
	<line x1="70" y1="195" x2="211" y2="195" stroke="#4393c3" stroke-width="2"/>
	<text x="136" y="212" fill="#b2182b" font-family="Verdana" font-size="12">1,1</text>
	<g>
		<path d="M245 170 a14 14 90 0 1 14 14 V195 h-96 V184 a14 14 90 0 1 14 -14" fill="#92c5de" stroke="#92c5de" stroke-width="0"/>
		<path d="M259 195 v11 a14 14 90 0 1 -14 14 H177 a14 14 90 0 1 -14 -14 V195 H96" fill="#d1e5f0" stroke="#d1e5f0" stroke-width="0"/>
		<rect x="163" y="170" width="96" height="50" fill="none" rx="14" stroke="#4393c3" stroke-width="2"/>
		<line x1="163" y1="195" x2="259" y2="195" stroke="#4393c3" stroke-width="1"/>
		<text x="171" y="187.75" fill="#000" font-family="Verdana" font-size="12">reglerFacture</text>
	</g>
</g>

<!-- Association Avoir -->
<g class="page_0_mr54B2QT diagram_page" visibility="visible">
	<line x1="345" y1="195" x2="345" y2="287" stroke="#4393c3" stroke-width="2"/>
	<text x="350" y="254" fill="#b2182b" font-family="Verdana" font-size="12">1,N</text>
	<line x1="211" y1="515" x2="345" y2="287" stroke="#4393c3" stroke-width="2"/>
	<text x="245" y="473" fill="#b2182b" font-family="Verdana" font-size="12">0,N</text>
	<line x1="479" y1="287" x2="345" y2="287" stroke="#4393c3" stroke-width="2"/>
	<text x="389" y="304" fill="#b2182b" font-family="Verdana" font-size="12">0,N</text>
	<g>
		<path d="M369 262 a14 14 90 0 1 14 14 V287 h-76 V276 a14 14 90 0 1 14 -14" fill="#92c5de" stroke="#92c5de" stroke-width="0"/>
		<path d="M383 287 v11 a14 14 90 0 1 -14 14 H321 a14 14 90 0 1 -14 -14 V287 H76" fill="#d1e5f0" stroke="#d1e5f0" stroke-width="0"/>
		<rect x="307" y="262" width="76" height="50" fill="none" rx="14" stroke="#4393c3" stroke-width="2"/>
		<line x1="307" y1="287" x2="383" y2="287" stroke="#4393c3" stroke-width="1"/>
		<text x="329" y="279.75" fill="#000" font-family="Verdana" font-size="12">Avoir</text>
		<text x="314" y="304.8" fill="#000" font-family="Verdana" font-size="12">qtachetée</text>
	</g>
</g>

<!-- Association ReglerVente -->
<g class="page_0_mr54B2QT diagram_page" visibility="visible">
	<line x1="619" y1="422" x2="619" y2="287" stroke="#4393c3" stroke-width="2"/>
	<text x="624" y="380" fill="#b2182b" font-family="Verdana" font-size="12">0,N</text>
	<line x1="761" y1="287" x2="619" y2="287" stroke="#4393c3" stroke-width="2"/>
	<text x="669" y="304" fill="#b2182b" font-family="Verdana" font-size="12">1,1</text>
	<g>
		<path d="M649 262 a14 14 90 0 1 14 14 V287 h-88 V276 a14 14 90 0 1 14 -14" fill="#92c5de" stroke="#92c5de" stroke-width="0"/>
		<path d="M663 287 v11 a14 14 90 0 1 -14 14 H589 a14 14 90 0 1 -14 -14 V287 H88" fill="#d1e5f0" stroke="#d1e5f0" stroke-width="0"/>
		<rect x="575" y="262" width="88" height="50" fill="none" rx="14" stroke="#4393c3" stroke-width="2"/>
		<line x1="575" y1="287" x2="663" y2="287" stroke="#4393c3" stroke-width="1"/>
		<text x="582" y="279.75" fill="#000" font-family="Verdana" font-size="12">ReglerVente</text>
	</g>
</g>

<!-- Association Ajouter -->
<g class="page_0_mr54B2QT diagram_page" visibility="visible">
	<line x1="211" y1="287" x2="211" y2="422" stroke="#4393c3" stroke-width="2"/>
	<text x="216" y="346" fill="#b2182b" font-family="Verdana" font-size="12">1,1</text>
	<line x1="211" y1="515" x2="211" y2="422" stroke="#4393c3" stroke-width="2"/>
	<text x="184" y="473" fill="#b2182b" font-family="Verdana" font-size="12">0,N</text>
	<g>
		<path d="M227 397 a14 14 90 0 1 14 14 V422 h-60 V411 a14 14 90 0 1 14 -14" fill="#92c5de" stroke="#92c5de" stroke-width="0"/>
		<path d="M241 422 v11 a14 14 90 0 1 -14 14 H195 a14 14 90 0 1 -14 -14 V422 H60" fill="#d1e5f0" stroke="#d1e5f0" stroke-width="0"/>
		<rect x="181" y="397" width="60" height="50" fill="none" rx="14" stroke="#4393c3" stroke-width="2"/>
		<line x1="181" y1="422" x2="241" y2="422" stroke="#4393c3" stroke-width="1"/>
		<text x="189" y="414.75" fill="#000" font-family="Verdana" font-size="12">Ajouter</text>
	</g>
</g>

<!-- Association stock -->
<g class="page_0_mr54B2QT diagram_page" visibility="visible">
	<line x1="211" y1="515" x2="479" y2="422" stroke="#4393c3" stroke-width="2"/>
	<text x="261" y="510" fill="#b2182b" font-family="Verdana" font-size="12">1,N</text>
	<line x1="479" y1="287" x2="479" y2="422" stroke="#4393c3" stroke-width="2"/>
	<text x="452" y="329" fill="#b2182b" font-family="Verdana" font-size="12">1,N</text>
	
	<line x1="345" y1="422" x2="479" y2="422" stroke="#4393c3" stroke-width="2"/>
	<text x="390" y="439" fill="#b2182b" font-family="Verdana" font-size="12">0,1</text>
	<g>
		<path d="M489 388 a14 14 90 0 1 14 14 V413 h-48 V402 a14 14 90 0 1 14 -14" fill="#92c5de" stroke="#92c5de" stroke-width="0"/>
		<path d="M503 413 v29 a14 14 90 0 1 -14 14 H469 a14 14 90 0 1 -14 -14 V413 H48" fill="#d1e5f0" stroke="#d1e5f0" stroke-width="0"/>
		<rect x="455" y="388" width="48" height="68" fill="none" rx="14" stroke="#4393c3" stroke-width="2"/>
		<line x1="455" y1="413" x2="503" y2="413" stroke="#4393c3" stroke-width="1"/>
		<text x="463" y="405.75" fill="#000" font-family="Verdana" font-size="12">stock</text>
		<text x="462" y="430.8" fill="#000" font-family="Verdana" font-size="12">qtp</text>
		<text x="462" y="447.8" fill="#000" font-family="Verdana" font-size="12">Date</text>
	</g>
</g>

<!-- Association concernerV -->
<g class="page_0_mr54B2QT diagram_page" visibility="visible">
	<line x1="619" y1="422" x2="761" y2="422" stroke="#4393c3" stroke-width="2"/>
	<text x="649" y="439" fill="#b2182b" font-family="Verdana" font-size="12">1,1</text>
	<line x1="884" y1="422" x2="761" y2="422" stroke="#4393c3" stroke-width="2"/>
	<text x="808" y="439" fill="#b2182b" font-family="Verdana" font-size="12">1,N</text>
	<g>
		<path d="M789 397 a14 14 90 0 1 14 14 V422 h-84 V411 a14 14 90 0 1 14 -14" fill="#92c5de" stroke="#92c5de" stroke-width="0"/>
		<path d="M803 422 v11 a14 14 90 0 1 -14 14 H733 a14 14 90 0 1 -14 -14 V422 H84" fill="#d1e5f0" stroke="#d1e5f0" stroke-width="0"/>
		<rect x="719" y="397" width="84" height="50" fill="none" rx="14" stroke="#4393c3" stroke-width="2"/>
		<line x1="719" y1="422" x2="803" y2="422" stroke="#4393c3" stroke-width="1"/>
		<text x="727" y="414.75" fill="#000" font-family="Verdana" font-size="12">concernerV</text>
	</g>
</g>

<!-- Association Composer -->
<g class="page_0_mr54B2QT diagram_page" visibility="visible">
	<line x1="211" y1="515" x2="619" y2="515" stroke="#4393c3" stroke-width="2"/>
	<text x="261" y="532" fill="#b2182b" font-family="Verdana" font-size="12">0,N</text>
	<line x1="619" y1="422" x2="619" y2="515" stroke="#4393c3" stroke-width="2"/>
	<text x="624" y="473" fill="#b2182b" font-family="Verdana" font-size="12">1,N</text>
	<line x1="479" y1="287" x2="619" y2="515" stroke="#4393c3" stroke-width="2"/>
	<text x="510" y="329" fill="#b2182b" font-family="Verdana" font-size="12">1,N</text>
	<g>
		<path d="M646 490 a14 14 90 0 1 14 14 V515 h-82 V504 a14 14 90 0 1 14 -14" fill="#92c5de" stroke="#92c5de" stroke-width="0"/>
		<path d="M660 515 v11 a14 14 90 0 1 -14 14 H592 a14 14 90 0 1 -14 -14 V515 H82" fill="#d1e5f0" stroke="#d1e5f0" stroke-width="0"/>
		<rect x="578" y="490" width="82" height="50" fill="none" rx="14" stroke="#4393c3" stroke-width="2"/>
		<line x1="578" y1="515" x2="660" y2="515" stroke="#4393c3" stroke-width="1"/>
		<text x="588" y="507.75" fill="#000" font-family="Verdana" font-size="12">Composer</text>
		<text x="585" y="532.8" fill="#000" font-family="Verdana" font-size="12">QteVendue</text>
	</g>
</g>

<!-- Association Appartient à -->
<g class="page_0_mr54B2QT diagram_page" visibility="visible">
	<line x1="211" y1="515" x2="211" y2="599" stroke="#4393c3" stroke-width="2"/>
	<text x="216" y="566" fill="#b2182b" font-family="Verdana" font-size="12">1,1</text>
	<line x1="211" y1="683" x2="211" y2="599" stroke="#4393c3" stroke-width="2"/>
	<text x="216" y="641" fill="#b2182b" font-family="Verdana" font-size="12">1,N</text>
	<g>
		<path d="M242 574 a14 14 90 0 1 14 14 V599 h-90 V588 a14 14 90 0 1 14 -14" fill="#92c5de" stroke="#92c5de" stroke-width="0"/>
		<path d="M256 599 v11 a14 14 90 0 1 -14 14 H180 a14 14 90 0 1 -14 -14 V599 H90" fill="#d1e5f0" stroke="#d1e5f0" stroke-width="0"/>
		<rect x="166" y="574" width="90" height="50" fill="none" rx="14" stroke="#4393c3" stroke-width="2"/>
		<line x1="166" y1="599" x2="256" y2="599" stroke="#4393c3" stroke-width="1"/>
		<text x="174" y="591.75" fill="#000" font-family="Verdana" font-size="12">Appartient à</text>
	</g>
</g>

<!-- Entity Fournisseur -->
<g class="page_0_mr54B2QT diagram_page" visibility="visible">
	<g>
		<rect x="170" y="9" width="82" height="25" fill="#f4a582" stroke="#f4a582" stroke-width="0" opacity="1"/>
		<rect x="170" y="34" width="82" height="111" fill="#fddbc7" stroke="#fddbc7" stroke-width="0" opacity="1"/>
		<rect x="170" y="9" width="82" height="136" fill="none" stroke="#d6604d" stroke-width="2" opacity="1"/>
		<line x1="170" y1="34" x2="252" y2="34" stroke="#d6604d" stroke-width="1"/>
	</g>
	<text x="176" y="26.75" fill="#000" font-family="Verdana" font-size="12">Fournisseur</text>
	<text x="175" y="51.8" fill="#000" font-family="Verdana" font-size="12">CodeF</text>
	<line x1="175" y1="54" x2="213" y2="54" stroke="#000" stroke-width="1"/>
	<text x="175" y="68.8" fill="#000" font-family="Verdana" font-size="12">NomF</text>
	<text x="175" y="85.8" fill="#000" font-family="Verdana" font-size="12">PrénomF</text>
	<text x="175" y="102.8" fill="#000" font-family="Verdana" font-size="12">AdrF</text>
	<text x="175" y="119.8" fill="#000" font-family="Verdana" font-size="12">TelF</text>
	<text x="175" y="136.8" fill="#000" font-family="Verdana" font-size="12">solde</text>
</g>

<!-- Entity ReglementFacture -->
<g class="page_0_mr54B2QT diagram_page" visibility="visible">
	<g>
		<rect x="9" y="153" width="122" height="25" fill="#f4a582" stroke="#f4a582" stroke-width="0" opacity="1"/>
		<rect x="9" y="178" width="122" height="59" fill="#fddbc7" stroke="#fddbc7" stroke-width="0" opacity="1"/>
		<rect x="9" y="153" width="122" height="84" fill="none" stroke="#d6604d" stroke-width="2" opacity="1"/>
		<line x1="9" y1="178" x2="131" y2="178" stroke="#d6604d" stroke-width="1"/>
	</g>
	<text x="15" y="170.75" fill="#000" font-family="Verdana" font-size="12">ReglementFacture</text>
	<text x="14" y="195.8" fill="#000" font-family="Verdana" font-size="12">CodeReg</text>
	<line x1="14" y1="198" x2="68" y2="198" stroke="#000" stroke-width="1"/>
	<text x="14" y="212.8" fill="#000" font-family="Verdana" font-size="12">DateReglF</text>
	<text x="14" y="229.8" fill="#000" font-family="Verdana" font-size="12">SommeAjouteF</text>
</g>

<!-- Entity Facture -->
<g class="page_0_mr54B2QT diagram_page" visibility="visible">
	<g>
		<rect x="291" y="153" width="108" height="25" fill="#f4a582" stroke="#f4a582" stroke-width="0" opacity="1"/>
		<rect x="291" y="178" width="108" height="59" fill="#fddbc7" stroke="#fddbc7" stroke-width="0" opacity="1"/>
		<rect x="291" y="153" width="108" height="84" fill="none" stroke="#d6604d" stroke-width="2" opacity="1"/>
		<line x1="291" y1="178" x2="399" y2="178" stroke="#d6604d" stroke-width="1"/>
	</g>
	<text x="322" y="170.75" fill="#000" font-family="Verdana" font-size="12">Facture</text>
	<text x="296" y="195.8" fill="#000" font-family="Verdana" font-size="12">Codefacture</text>
	<line x1="296" y1="198" x2="370" y2="198" stroke="#000" stroke-width="1"/>
	<text x="296" y="212.8" fill="#000" font-family="Verdana" font-size="12">DateCommande</text>
	<text x="296" y="229.8" fill="#000" font-family="Verdana" font-size="12">SommePayée</text>
</g>

<!-- Entity EntreeStock -->
<g class="page_0_mr54B2QT diagram_page" visibility="visible">
	<g>
		<rect x="169" y="245" width="84" height="25" fill="#f4a582" stroke="#f4a582" stroke-width="0" opacity="1"/>
		<rect x="169" y="270" width="84" height="59" fill="#fddbc7" stroke="#fddbc7" stroke-width="0" opacity="1"/>
		<rect x="169" y="245" width="84" height="84" fill="none" stroke="#d6604d" stroke-width="2" opacity="1"/>
		<line x1="169" y1="270" x2="253" y2="270" stroke="#d6604d" stroke-width="1"/>
	</g>
	<text x="174" y="262.75" fill="#000" font-family="Verdana" font-size="12">EntreeStock</text>
	<text x="174" y="287.8" fill="#000" font-family="Verdana" font-size="12">codeEntry</text>
	<line x1="174" y1="290" x2="235" y2="290" stroke="#000" stroke-width="1"/>
	<text x="174" y="304.8" fill="#000" font-family="Verdana" font-size="12">DateEntry</text>
	<text x="174" y="321.8" fill="#000" font-family="Verdana" font-size="12">qtEntrée</text>
</g>

<!-- Entity Prix -->
<g class="page_0_mr54B2QT diagram_page" visibility="visible">
	<g>
		<rect x="415" y="262" width="128" height="25" fill="#f4a582" stroke="#f4a582" stroke-width="0" opacity="1"/>
		<rect x="415" y="287" width="128" height="25" fill="#fddbc7" stroke="#fddbc7" stroke-width="0" opacity="1"/>
		<rect x="415" y="262" width="128" height="50" fill="none" stroke="#d6604d" stroke-width="2" opacity="1"/>
		<line x1="415" y1="287" x2="543" y2="287" stroke="#d6604d" stroke-width="1"/>
	</g>
	<text x="467" y="279.75" fill="#000" font-family="Verdana" font-size="12">Prix</text>
	<text x="420" y="304.8" fill="#000" font-family="Verdana" font-size="12">PrixUnite PrixVente</text>
	<line x1="420" y1="307" x2="537" y2="307" stroke="#000" stroke-width="1"/>
</g>

<!-- Entity ReglementVente -->
<g class="page_0_mr54B2QT diagram_page" visibility="visible">
	<g>
		<rect x="695" y="245" width="132" height="25" fill="#f4a582" stroke="#f4a582" stroke-width="0" opacity="1"/>
		<rect x="695" y="270" width="132" height="59" fill="#fddbc7" stroke="#fddbc7" stroke-width="0" opacity="1"/>
		<rect x="695" y="245" width="132" height="84" fill="none" stroke="#d6604d" stroke-width="2" opacity="1"/>
		<line x1="695" y1="270" x2="827" y2="270" stroke="#d6604d" stroke-width="1"/>
	</g>
	<text x="711" y="262.75" fill="#000" font-family="Verdana" font-size="12">ReglementVente</text>
	<text x="700" y="287.8" fill="#000" font-family="Verdana" font-size="12">CodeRegV</text>
	<line x1="700" y1="290" x2="763" y2="290" stroke="#000" stroke-width="1"/>
	<text x="700" y="304.8" fill="#000" font-family="Verdana" font-size="12">DateReglVente</text>
	<text x="700" y="321.8" fill="#000" font-family="Verdana" font-size="12">SommeAjouteVente</text>
</g>

<!-- Entity SortieStock -->
<g class="page_0_mr54B2QT diagram_page" visibility="visible">
	<g>
		<rect x="305" y="365" width="80" height="25" fill="#f4a582" stroke="#f4a582" stroke-width="0" opacity="1"/>
		<rect x="305" y="390" width="80" height="59" fill="#fddbc7" stroke="#fddbc7" stroke-width="0" opacity="1"/>
		<rect x="305" y="365" width="80" height="84" fill="none" stroke="#d6604d" stroke-width="2" opacity="1"/>
		<line x1="305" y1="390" x2="385" y2="390" stroke="#d6604d" stroke-width="1"/>
	</g>
	<text x="310" y="382.75" fill="#000" font-family="Verdana" font-size="12">SortieStock</text>
	<text x="310" y="407.8" fill="#000" font-family="Verdana" font-size="12">codeSortie</text>
	<line x1="310" y1="410" x2="375" y2="410" stroke="#000" stroke-width="1"/>
	<text x="310" y="424.8" fill="#000" font-family="Verdana" font-size="12">DateSortie</text>
	<text x="310" y="441.8" fill="#000" font-family="Verdana" font-size="12">motif</text>
</g>

<!-- Entity Vente -->
<g class="page_0_mr54B2QT diagram_page" visibility="visible">
	<g>
		<rect x="594" y="388" width="50" height="25" fill="#f4a582" stroke="#f4a582" stroke-width="0" opacity="1"/>
		<rect x="594" y="413" width="50" height="43" fill="#fddbc7" stroke="#fddbc7" stroke-width="0" opacity="1"/>
		<rect x="594" y="388" width="50" height="68" fill="none" stroke="#d6604d" stroke-width="2" opacity="1"/>
		<line x1="594" y1="413" x2="644" y2="413" stroke="#d6604d" stroke-width="1"/>
	</g>
	<text x="601" y="405.75" fill="#000" font-family="Verdana" font-size="12">Vente</text>
	<text x="599" y="430.8" fill="#000" font-family="Verdana" font-size="12">CodeV</text>
	<line x1="599" y1="433" x2="639" y2="433" stroke="#000" stroke-width="1"/>
	<text x="599" y="447.8" fill="#000" font-family="Verdana" font-size="12">DateV</text>
</g>

<!-- Entity Client -->
<g class="page_0_mr54B2QT diagram_page" visibility="visible">
	<g>
		<rect x="835" y="354" width="98" height="25" fill="#f4a582" stroke="#f4a582" stroke-width="0" opacity="1"/>
		<rect x="835" y="379" width="98" height="111" fill="#fddbc7" stroke="#fddbc7" stroke-width="0" opacity="1"/>
		<rect x="835" y="354" width="98" height="136" fill="none" stroke="#d6604d" stroke-width="2" opacity="1"/>
		<line x1="835" y1="379" x2="933" y2="379" stroke="#d6604d" stroke-width="1"/>
	</g>
	<text x="867" y="371.75" fill="#000" font-family="Verdana" font-size="12">Client</text>
	<text x="840" y="396.8" fill="#000" font-family="Verdana" font-size="12">Code&#45;Client</text>
	<line x1="840" y1="399" x2="911" y2="399" stroke="#000" stroke-width="1"/>
	<text x="840" y="413.8" fill="#000" font-family="Verdana" font-size="12">Nom&#45;Client</text>
	<text x="840" y="430.8" fill="#000" font-family="Verdana" font-size="12">Prénom&#45;Client</text>
	<text x="840" y="447.8" fill="#000" font-family="Verdana" font-size="12">Adr&#45;Client</text>
	<text x="840" y="464.8" fill="#000" font-family="Verdana" font-size="12">Tel&#45;Client</text>
	<text x="840" y="481.8" fill="#000" font-family="Verdana" font-size="12">crédit</text>
</g>

<!-- Entity Produit -->
<g class="page_0_mr54B2QT diagram_page" visibility="visible">
	<g>
		<rect x="166" y="481" width="90" height="25" fill="#f4a582" stroke="#f4a582" stroke-width="0" opacity="1"/>
		<rect x="166" y="506" width="90" height="43" fill="#fddbc7" stroke="#fddbc7" stroke-width="0" opacity="1"/>
		<rect x="166" y="481" width="90" height="68" fill="none" stroke="#d6604d" stroke-width="2" opacity="1"/>
		<line x1="166" y1="506" x2="256" y2="506" stroke="#d6604d" stroke-width="1"/>
	</g>
	<text x="189" y="498.75" fill="#000" font-family="Verdana" font-size="12">Produit</text>
	<text x="171" y="523.8" fill="#000" font-family="Verdana" font-size="12">CodeP</text>
	<line x1="171" y1="526" x2="210" y2="526" stroke="#000" stroke-width="1"/>
	<text x="171" y="540.8" fill="#000" font-family="Verdana" font-size="12">DésignationP</text>
</g>

<!-- Entity TypeProduit -->
<g class="page_0_mr54B2QT diagram_page" visibility="visible">
	<g>
		<rect x="166" y="649" width="90" height="25" fill="#f4a582" stroke="#f4a582" stroke-width="0" opacity="1"/>
		<rect x="166" y="674" width="90" height="43" fill="#fddbc7" stroke="#fddbc7" stroke-width="0" opacity="1"/>
		<rect x="166" y="649" width="90" height="68" fill="none" stroke="#d6604d" stroke-width="2" opacity="1"/>
		<line x1="166" y1="674" x2="256" y2="674" stroke="#d6604d" stroke-width="1"/>
	</g>
	<text x="175" y="666.75" fill="#000" font-family="Verdana" font-size="12">TypeProduit</text>
	<text x="171" y="691.8" fill="#000" font-family="Verdana" font-size="12">CodeT</text>
	<line x1="171" y1="694" x2="210" y2="694" stroke="#000" stroke-width="1"/>
	<text x="171" y="708.8" fill="#000" font-family="Verdana" font-size="12">DésignationT</text>
</g>
</svg>